<svg xmlns="http://www.w3.org/2000/svg" xmlns:xlink="http://www.w3.org/1999/xlink" version="1.1" id="Layer_1" x="0px" y="0px" width="90px" height="90px" viewBox="4.5 -9.0 90.0 121.5" enable-background="new 0 0 90 90" xml:space="preserve">
<path fill="#000000" d="M62.98,12.652c-5.57,0-10.113,4.145-10.113,9.239v0.345c-1.051-0.323-2.182-0.5-3.359-0.5  c-2.674,0-5.115,0.919-6.945,2.418c-1.808-1.382-4.145-2.212-6.702-2.212c-1.184,0-2.323,0.176-3.381,0.507l-0.104-12.053  C32.376,4.567,28.195,0,22.844,0c-5.38,0-11.399,2.488-11.399,10.124v38.558V60.25c0,1.287,0.088,2.543,0.25,3.777  c0.544,4.395,2.05,8.475,4.527,12.156c6.159,9.172,15.185,13.817,26.834,13.817c0.249,0,0.499-0.008,0.749-0.008  C59.24,89.734,72.344,76.971,73.072,61.82l0.029-39.931C73.102,16.797,68.566,12.652,62.98,12.652z M46.188,30.997  c0-1.065,1.365-2.256,3.32-2.256c1.963,0,3.322,1.191,3.322,2.256v15.817c0,1.074-1.359,2.25-3.322,2.25  c-1.955,0-3.32-1.176-3.32-2.25V30.997z M35.861,28.946c1.962,0,3.321,1.183,3.321,2.249v9.062  c-0.123-0.054-0.247-0.106-0.371-0.154c-0.922-0.357-1.907-0.547-2.936-0.548h-3.264h-0.006l-0.06-8.419  C32.597,30.085,33.942,28.946,35.861,28.946z M18.449,10.124c0.216-3.537,2.425-3.116,4.395-3.116c1.859,0,2.528,2.028,2.528,3.417  l0.169,20.653v0.117v8.36h-5.013c-0.707,0-1.391,0.091-2.062,0.272h-0.018L18.449,10.124L18.449,10.124z M66.098,60.551  c-0.016,11.752-10.488,22.232-22.41,22.439c-9.628,0.154-16.706-3.344-21.66-10.717c-2.073-3.078-3.249-6.549-3.513-10.34  c-0.044-0.55-0.066-1.113-0.066-1.677V60.25V48.682c0-0.426,0.279-0.815,0.521-1.065l0.228-0.271c0.235-0.287,0.72-0.785,1.33-0.785  h5.013h7.122h3.212c0.815,0,1.697,0.889,1.977,2.231c0.059,0.272,0.103,0.574,0.103,0.883c0,1.83-1.095,3.109-2.079,3.109H28.18  v0.403v3.103v3.506h7.695c3.432,0,6.423-2.139,7.967-5.276c1.632,0.971,3.564,1.551,5.666,1.551c5.652,0,10.262-4.086,10.326-9.137  l0.037-25.042c0-1.213,1.426-2.242,3.109-2.242c1.69,0,3.117,1.029,3.117,2.242V60.551L66.098,60.551z"/>
<text x="0.0" y="105.75" font-size="4.5" font-weight="bold" font-family="Helvetica Neue, Helvetica, Arial-Unicode, Arial, Sans-serif" fill="#000000">Created by Sara Quintana</text><text x="0.0" y="110.25" font-size="4.5" font-weight="bold" font-family="Helvetica Neue, Helvetica, Arial-Unicode, Arial, Sans-serif" fill="#000000">from the Noun Project</text></svg>